<svg width="100%" height="100%" viewBox="110,120,400,200" xmlns="http://www.w3.org/2000/svg" xmlns:svg="http://www.w3.org/2000/svg">
 <!-- Created with SVG-edit - http://svg-edit.googlecode.com/ -->
 <g>
  <title>Layer 1</title>
  <path fill="none" stroke="#000000" stroke-width="5" id="svg_1" d="m174,171c1,0 1.72501,0.02672 2.765,0.44333c0.6315,0.25298 1.36256,0.63504 2.22,1.08c0.47644,0.24725 1.51518,0.80966 2.08067,1.12c1.23773,0.67926 1.91565,1.05251 2.64265,1.44c0.77425,0.41267 1.60202,0.84659 2.49301,1.29001c1.95818,0.97452 3.04745,1.47525 4.20267,1.99733c1.21602,0.54956 2.49869,1.10762 3.84599,1.67101c1.40193,0.58623 2.86313,1.17824 4.386,1.761c3.18866,1.22021 4.86861,1.80394 6.58667,2.39465c1.74725,0.60074 3.52341,1.1873 5.319,1.761c1.80176,0.57567 3.60689,1.13547 5.409,1.67101c3.54462,1.05336 5.28232,1.53159 6.98267,1.99733c1.65804,0.45415 3.27263,0.88272 4.83749,1.29001c1.5085,0.39261 2.95798,0.76143 4.3425,1.11c2.55267,0.64265 3.71353,0.93053 4.79601,1.2c1.00621,0.25049 1.93867,0.48 2.799,0.69l0.79034,0.19l0.72232,0.17l0.65634,0.14999"/>
  <path fill="none" stroke="#000000" stroke-width="5" id="svg_2" d="m213,220c-0.916,0.284 -1.34413,0.95747 -2,1.5c-0.60298,0.49878 -1.45204,0.48274 -2.14133,0.67067c-1.21629,0.3316 -1.97142,0.68875 -2.3795,0.85016c-0.82719,0.32716 -1.97951,0.81175 -2.62584,1.09384c-0.83293,0.36353 -1.61385,0.70248 -2.496,0.98534c-1.00146,0.32112 -1.71028,0.48805 -2.38933,0.7c-1.20143,0.37498 -2.13887,1.17442 -2.79601,0.53467c-0.59232,-0.57664 -0.0914,-1.53664 -0.00533,-2.50134c0.10928,-1.22487 0.18878,-1.91118 0.26933,-2.63199c0.08305,-0.74321 0.17229,-1.49631 0.26849,-2.24701c0.0945,-0.7373 0.28273,-2.1232 0.4955,-3.32367c0.09436,-0.53236 0.26654,-1.47343 0.5,-2.23666c0.35045,-1.14568 0.69284,-2.03198 1.60451,-2.33684c0.81946,-0.27402 1.73717,-0.05716 2.38216,-0.05716c1.00134,0 1.87584,0 2.53217,0c1.1145,0 1.95451,0 2.87451,0c1,0 1.53,0 2.08,0c1.7695,0 2.396,0 3.0365,0c0.65149,0 1.97549,0 2.642,0c0.6655,0 1.98151,-0.0052 3.25883,0.00267c0.61868,0.00381 1.22235,-0.00075 2.37067,0.06934c0.5433,0.03316 2.03093,0.22115 2.864,0.49733c0.77043,0.25542 1.45241,0.62907 2.136,0.948c1.03078,0.4809 1.76213,0.73726 2.49783,0.94099c0.70683,0.19574 1.9774,0.42531 2.75949,0.51634c0.70898,0.08252 1.68256,0.24847 2.50801,0.45067c0.91451,0.22401 1.91832,0.42442 2.63599,0.48933c0.73068,0.0661 1.8075,0.08307 2.78401,0.08533c0.8235,0.00189 1.78149,0 2.75467,0c0.80399,0 1.62599,0 2.65717,0c0.6855,0 1.52016,0 2.517,0c0.91916,0 1.88367,0.00153 2.80449,0c0.808,-0.00134 1.64674,-0.09857 2.60001,-0.33333c0.91853,-0.22621 1.45338,-0.38994 2.03734,-0.57068c0.63087,-0.19525 2.00833,-0.66528 2.74133,-0.95467c1.56425,-0.61754 2.36636,-0.99998 3.18799,-1.39333c0.83678,-0.40059 1.67386,-0.823 2.51251,-1.248c0.83467,-0.42299 1.65547,-0.84775 2.4675,-1.248c1.54796,-0.763 2.28625,-1.0923 2.99333,-1.396c0.67305,-0.28908 1.31944,-0.54938 1.935,-0.7935c0.58449,-0.23181 1.14198,-0.44411 1.66499,-0.65849c0.96373,-0.39503 1.81226,-0.78088 2.52,-1.19334c0.61116,-0.35617 1.89272,-0.97493 1.77333,-1.71066c-0.15102,-0.93063 -1.25172,-0.99631 -1.99199,-1.32533c-0.81673,-0.36302 -1.67369,-0.70042 -2.8985,-1.15317c-0.73087,-0.27016 -1.41965,-0.50812 -2.091,-0.717c-1.01506,-0.31581 -2.08792,-0.6089 -2.78934,-0.76283c-0.63579,-0.13953 -1.87181,-0.13939 -2.22917,0.625c-0.3916,0.83765 -0.63466,1.43466 -1.13333,2.43333l-0.3,0.59999"/>
  <path fill="#00ff7f" stroke="#000000" stroke-width="5" id="svg_3" d="m264,234c1,0 1.80008,0.01114 2.7,0c0.84187,-0.01042 1.84776,-0.20709 2.58267,-0.44667c0.57851,-0.1886 1.88434,-0.71922 2.60266,-1.036c0.75102,-0.33119 1.52081,-0.6683 1.91917,-0.8075c1.18323,-0.41344 1.99089,-0.55566 2.77417,-0.6485c1.10468,-0.13092 2.10114,-0.17838 2.90698,-0.4185c0.70721,-0.21074 1.70178,-0.7704 2.51434,-1.12201c0.59155,-0.25598 1.59879,-0.48766 2.39999,-0.51633c1.00073,-0.03581 1.84427,0.00879 2.76666,-0.17117c0.8045,-0.15695 1.69202,-0.4908 2.32001,-0.80533c1.0567,-0.52927 1.77161,-1.03619 2.14932,-1.28934c0.77695,-0.52066 1.55435,-1.07356 2.76385,-1.81734c0.39532,-0.2431 1.1944,-0.68765 1.96417,-1.14665c0.75555,-0.45053 1.47931,-0.92842 2.15067,-1.45734c0.65936,-0.51949 1.25287,-1.0843 1.884,-1.548c1.16226,-0.8539 1.79892,-1.0912 2.64417,-1.5175c0.79861,-0.40279 1.51031,-0.90195 2.1825,-1.46249c0.46271,-0.38586 1.461,-1.18758 2,-1.60001c0.55173,-0.42218 1.6228,-1.34261 2.08932,-1.87334c0.46445,-0.5284 1.064,-1.37659 1.68533,-2.14932c0.58441,-0.72682 1.01276,-1.15567 1.60001,-1.85068c0.61337,-0.72594 1.18826,-1.53143 1.564,-2.05466c0.66742,-0.92938 1.44168,-1.47252 1.74933,-2.468c0.23019,-0.74481 -0.06851,-1.62851 -0.20267,-2.42267c-0.16461,-0.97447 -0.28394,-1.51894 -0.42932,-2.09599c-0.31686,-1.25772 -0.77219,-2.61148 -1.04602,-3.3175c-0.28323,-0.73022 -0.60388,-1.47043 -0.95398,-2.21851c-0.35712,-0.76308 -0.74292,-1.5274 -1.15201,-2.2905c-0.41223,-0.76898 -1.28992,-2.28523 -1.75067,-3.02583c-0.4567,-0.73409 -0.92444,-1.44743 -1.40399,-2.133c-0.46799,-0.66905 -0.94104,-1.30531 -1.422,-1.899c-0.46078,-0.5688 -1.37668,-1.56697 -1.83099,-1.98283c-0.42648,-0.39038 -0.84189,-0.74809 -1.68002,-1.30333c-0.76425,-0.50629 -1.87326,-1.10719 -2.56165,-1.50284c-0.68497,-0.39368 -1.40015,-0.79739 -2.22,-1.116c-0.91339,-0.35493 -1.99854,-0.60574 -2.58417,-0.72366c-0.60773,-0.12238 -1.23624,-0.2359 -2.53668,-0.40001c-0.65817,-0.08305 -1.97211,-0.20093 -2.617,-0.24016c-1.24634,-0.07582 -1.84341,-0.08871 -2.418,-0.10068c-1.07086,-0.02229 -2.43756,-0.02896 -3.15881,-0.0195c-0.79968,0.01048 -1.44037,0.41409 -0.84534,0.71735c0.78494,0.40005 2.06528,0.78561 2.87881,1.04565c0.92361,0.29523 1.94574,0.60468 3.04651,0.933c1.16153,0.34645 2.36917,0.69922 3.60449,1.05901c1.24603,0.3629 3.70364,1.07661 4.884,1.422c1.14365,0.33464 2.25278,0.66087 3.33151,0.97501c1.05026,0.30583 2.07538,0.60216 3.0795,0.88499c0.98389,0.27713 2.90775,0.79793 3.85333,1.04018c0.93311,0.23906 1.85535,0.46558 2.7645,0.6855c0.89453,0.2164 1.77478,0.42482 2.63849,0.63148c0.84698,0.20267 2.48633,0.60133 3.27518,0.80467c0.76846,0.19809 1.51303,0.39859 2.229,0.6105c0.69135,0.20462 1.35251,0.41652 1.97699,0.6465c0.59683,0.2198 1.67743,0.6978 2.15152,0.96432c0.44983,0.25288 0.85971,0.52678 1.23148,0.8145c0.35718,0.27644 0.68158,0.56905 0.97952,0.86852c0.28998,0.29146 0.81235,0.8924 1.05331,1.19583c0.2377,0.29932 0.46243,0.60425 0.66452,0.92099c0.20166,0.31609 0.39453,0.64185 0.53848,0.99301c0.44891,1.09509 0.56027,1.95895 0.60001,2.4135c0.08517,0.97424 0.06003,2.05298 0.03082,2.63083c-0.06281,1.24223 -0.12482,1.90646 -0.20132,2.59467c-0.15958,1.43558 -0.28342,2.16951 -0.42932,2.90666c-0.14673,0.74135 -0.29138,1.48882 -0.78134,2.90668c-0.24146,0.69872 -0.54471,1.36819 -0.87149,2.019c-0.32538,0.64804 -0.68253,1.27779 -1.06052,1.89301c-0.75519,1.22914 -1.56766,2.42155 -1.96783,3.02083c-0.3985,0.59673 -0.79422,1.18797 -1.18948,1.76849c-0.38843,0.57047 -1.14844,1.6642 -1.52533,2.17601c-0.7092,0.96304 -1.39291,1.80115 -1.71918,2.17549c-0.59564,0.6834 -1.1528,1.2473 -2.02301,2.1375c-0.58435,0.59775 -1.10263,1.45041 -1.12231,1.41383c-0.3999,-0.74319 0.14319,-1.77107 0.20099,-2.36417c0.13809,-1.41728 0.23077,-2.2206 0.34067,-3.07333c0.1152,-0.89398 0.24393,-1.81877 0.40948,-2.75999c0.33618,-1.91125 0.55942,-2.85442 0.80267,-3.784c0.24124,-0.92188 0.51495,-1.82634 0.8295,-2.70601c0.31104,-0.86984 0.65091,-1.71956 1.0545,-2.526c0.79221,-1.58289 1.29169,-2.30331 1.80002,-3.00266c0.50757,-0.69826 1.06125,-1.36569 1.64548,-2.013c0.59048,-0.65425 1.21713,-1.29202 1.87051,-1.923c1.34537,-1.29926 2.06677,-1.94133 2.79333,-2.60266c0.73611,-0.67003 1.48267,-1.34134 2.23199,-2.01601c0.74933,-0.67467 1.49673,-1.34506 2.23199,-2.01601c1.43872,-1.31288 2.12613,-1.9608 2.79602,-2.59599c0.65439,-0.62051 1.28915,-1.23082 1.90948,-1.8255c0.60501,-0.57999 1.19348,-1.14668 1.77451,-1.69051c1.11591,-1.04448 1.66479,-1.53056 2.19998,-2.00133c0.52051,-0.45786 1.03146,-0.89777 1.52551,-1.32899c0.48059,-0.41946 0.94888,-0.827 1.3905,-1.239c0.84885,-0.7919 1.23267,-1.19849 1.59866,-1.59868c0.35391,-0.38696 0.68228,-0.77008 0.98999,-1.14149c0.29221,-0.35271 0.56009,-0.69092 0.81,-1.0065c0.44019,-0.55586 0.59985,-0.82039 0.96802,-1.17999c0.56702,-0.55385 1.57553,-0.79636 2.34698,-0.87601c0.86053,-0.08885 2.06757,-0.26974 2.69034,-0.45734c0.68228,-0.20551 1.43234,-0.49596 2.73233,-1.08617c0.49362,-0.22411 1.01389,-0.4639 2.07733,-1.06067c0.56046,-0.31451 1.12521,-0.66115 1.677,-1.05449c1.13721,-0.81064 2.20029,-1.78763 2.71518,-2.30383c0.5159,-0.51721 1.00821,-1.05432 1.48349,-1.5975c0.46835,-0.53525 0.91882,-1.06679 2.13934,-2.5965c0.3725,-0.46686 0.72083,-0.91504 1.35999,-1.73933c0.56073,-0.72311 1.25446,-1.60056 1.7645,-2.23267c0.53555,-0.66374 0.55371,-1.57872 -0.5145,-2.03818c-0.42834,-0.18423 -1.55392,-0.49648 -2.22931,-0.66933c-0.74817,-0.19148 -1.57349,-0.38031 -2.47351,-0.5685c-0.97058,-0.20294 -3.12967,-0.60051 -4.31351,-0.79533c-1.24014,-0.20409 -2.52747,-0.39915 -3.849,-0.58951c-1.34247,-0.19337 -2.69565,-0.37723 -4.047,-0.5535c-1.33667,-0.17436 -3.92072,-0.49277 -5.14651,-0.6355c-1.17825,-0.13719 -2.31268,-0.26308 -3.40649,-0.375c-1.05518,-0.10797 -2.07565,-0.20384 -3.06448,-0.285c-0.9592,-0.07874 -2.80331,-0.19902 -3.69318,-0.24016c-0.86749,-0.0401 -1.71127,-0.06708 -2.52899,-0.08551c-0.78961,-0.01781 -1.54935,-0.02675 -2.27701,-0.03149c-0.69366,-0.00453 -1.97101,-0.00504 -2.55099,-0.00433c-0.54001,0.00066 -1.04004,0.00185 -1.5,0.0105c-0.42007,0.00789 -0.80038,0.01999 -1.14001,0.04649c-0.30038,0.02345 -0.78751,0.08977 -0.95798,0.16585c-0.13361,0.05962 -0.21576,0.18053 -0.17401,0.30899c0.06296,0.19373 0.29544,0.4124 0.61801,0.687c0.42706,0.36357 1.72949,1.28772 2.61264,1.87434c1.02551,0.68117 2.19955,1.42618 3.51602,2.22c1.43243,0.86374 2.98984,1.76031 4.668,2.67c1.76691,0.95778 5.59662,2.8661 7.64032,3.79449c2.08691,0.94801 4.22134,1.855 6.36902,2.7435c2.13306,0.88245 4.2424,1.72462 6.297,2.5455c1.98007,0.79111 5.63458,2.25792 7.26248,2.94717c1.50388,0.63675 2.884,1.24663 4.1445,1.842c1.1662,0.55081 2.23459,1.08922 3.2085,1.62599c0.90979,0.50142 2.5235,1.50658 3.24103,2.01801c0.68634,0.4892 1.32126,0.99034 1.90649,1.5c0.5636,0.49083 1.08368,0.9926 1.56448,1.5c0.46707,0.49292 1.31036,1.49472 1.69351,2.00034c0.3768,0.49724 0.729,1.00299 1.04999,1.521c0.31903,0.51485 0.61078,1.04544 0.87,1.593c0.26096,0.55128 0.70081,1.71573 0.88019,2.32834c0.18219,0.62219 0.33237,1.26102 0.46048,1.90799c0.12827,0.64778 0.23123,1.29787 0.3165,1.944c0.08401,0.6366 0.20389,1.87169 0.24451,2.46201c0.03922,0.56972 0.06491,1.11987 0.07501,1.64999c0.00974,0.50995 0.00552,1.00021 -0.01501,1.47c-0.01968,0.45026 -0.09714,1.2912 -0.16049,1.6805c-0.061,0.3748 -0.14182,0.73651 -0.2565,1.08151c-0.11447,0.34436 -0.26474,0.68227 -0.4545,1.00949c-0.198,0.34145 -0.72562,1.02577 -1.05316,1.37317c-0.34943,0.37061 -0.74527,0.73842 -1.17902,1.104c-0.45343,0.38217 -0.94412,0.75664 -1.46698,1.12199c-0.53845,0.37627 -1.6969,1.09337 -2.31085,1.43117c-0.62473,0.34372 -1.27304,0.66983 -1.93948,0.9855c-0.67722,0.32077 -1.37314,0.62892 -2.0835,0.9315c-0.72028,0.30681 -2.20038,0.90483 -2.95502,1.20483c-0.76138,0.30267 -1.52856,0.60489 -2.29349,0.92099c-0.76605,0.31657 -1.52765,0.64278 -2.27551,0.99301c-0.74417,0.34851 -2.18329,1.10776 -2.86667,1.52882c-0.6781,0.4178 -1.33099,0.86665 -1.96048,1.33951c-0.62695,0.47095 -1.23135,0.96774 -1.8165,1.48349c-0.58429,0.515 -1.70386,1.59628 -2.24435,2.15483c-0.53818,0.55615 -1.05804,1.12053 -1.56448,1.68301c-0.49719,0.55222 -0.97504,1.09834 -1.43851,1.629c-0.4472,0.51202 -1.28406,1.46829 -1.67517,1.90199c-0.36633,0.40622 -0.71146,0.77989 -1.02899,1.125c-0.28976,0.31491 -0.55167,0.59795 -0.77701,0.855c-0.19571,0.22324 -0.48685,0.57692 -0.54999,0.72017c-0.04486,0.10175 -0.0228,0.20108 0.06299,0.2355c0.13293,0.05333 0.35257,0.03156 0.63901,0.0015c0.3699,-0.03882 1.37708,-0.20486 2.02466,-0.31483c0.7338,-0.12462 1.53906,-0.26424 2.40302,-0.40799c0.90738,-0.15099 1.8447,-0.30272 2.79898,-0.444c0.95508,-0.1414 2.81625,-0.37988 3.69751,-0.46217c0.84283,-0.0787 1.65268,-0.13194 2.43149,-0.16049c0.75027,-0.02751 1.47614,-0.03215 2.1795,-0.01651c0.68469,0.01521 2.00897,0.09538 2.65302,0.15533c0.63199,0.05882 1.24759,0.13115 1.84348,0.21451c0.57516,0.08046 1.12485,0.17027 1.64551,0.26849c0.4913,0.09268 1.36786,0.29051 1.74701,0.39551c0.34479,0.09547 0.65771,0.18773 0.93149,0.29999c0.88092,0.36122 1.90137,0.89024 2.23318,1.70001c0.34436,0.84033 0.10416,1.72475 -0.16385,2.66666c-0.20535,0.72177 -0.1937,2.31123 -1.27866,2.16534c-0.72452,-0.09743 -0.27499,-1.15489 0.064,-2.43201c0.15787,-0.59473 0.35373,-1.26418 0.58051,-1.99651c0.24353,-0.78648 0.51508,-1.61075 0.82349,-2.45549c0.31512,-0.86307 0.62491,-1.74034 1.42935,-3.38133c0.38821,-0.7919 0.82712,-1.53494 1.28998,-2.24251c0.45743,-0.69922 0.95145,-1.36842 1.47,-2.0175c0.52145,-0.65274 1.06992,-1.29584 2.24002,-2.57333c0.60446,-0.65994 1.23691,-1.32175 1.88098,-1.9995c0.65723,-0.69159 1.32919,-1.39459 2.00702,-2.1165c0.68954,-0.73439 1.39487,-1.47729 2.77866,-3.05066c0.70734,-0.80424 1.4072,-1.63896 2.10901,-2.49901c0.71695,-0.87857 1.43655,-1.78964 2.16299,-2.733c0.74637,-0.96925 1.50769,-1.97205 3.06134,-4.10133c0.81372,-1.11522 1.63507,-2.26717 2.46298,-3.444c0.83612,-1.18848 1.66565,-2.38686 2.48102,-3.588c0.80658,-1.18822 1.59924,-2.3555 3.056,-4.63466c0.68756,-1.07574 1.32782,-2.11957 1.92899,-3.129c0.5773,-0.96939 1.11755,-1.90996 1.62302,-2.82301c0.48703,-0.87973 0.9512,-1.73228 1.78131,-3.38133c0.39584,-0.78633 0.76208,-1.55305 1.1055,-2.29199c0.32712,-0.70383 0.62677,-1.37334 0.8985,-2.004c0.25168,-0.58412 0.48157,-1.11847 0.82935,-2.03734c0.13974,-0.3692 0.24838,-0.68498 0.32401,-0.9525c0.06207,-0.21956 0.10202,-0.40099 0.108,-0.5475c0.00473,-0.11577 -0.00104,-0.22156 -0.09866,-0.33333c-0.04709,-0.05389 -0.1225,-0.08647 -0.2085,-0.10951c-0.10205,-0.02734 -0.22885,-0.0388 -0.37952,-0.04649c-0.17838,-0.00909 -0.388,-0.01164 -0.91199,-0.01067c-0.3205,0.0006 -0.68555,0.00221 -1.09351,0.054c-0.46072,0.05849 -0.98026,0.16417 -1.53452,0.37801c-1.33951,0.51675 -2.88599,1.54961 -3.75467,2.22549c-0.95447,0.74261 -1.93069,1.60277 -2.92798,2.5425c-1.03464,0.97495 -2.05658,2.00946 -3.05402,3.0825c-0.99194,1.06712 -2.81537,3.20709 -3.61749,4.252c-0.76132,0.99178 -1.44394,1.95975 -2.05649,2.89349c-0.57587,0.87781 -1.08392,1.71947 -1.53452,2.5155c-0.41684,0.73639 -1.09732,2.05464 -1.37418,2.62717c-0.24808,0.51302 -0.45938,0.97641 -0.642,1.392c-0.16251,0.36986 -0.3006,0.70164 -0.42599,0.996c-0.11203,0.26294 -0.30975,0.71266 -0.42099,0.90018c-0.11285,0.19025 -0.27023,0.38445 -0.48901,0.58649c-0.27365,0.25269 -0.65231,0.53452 -1.13699,0.87451c-0.60251,0.42264 -2.26978,1.51538 -3.35782,2.21649c-1.24643,0.80316 -2.63681,1.68936 -4.15051,2.649c-1.61591,1.02444 -3.31787,2.09724 -5.08649,3.207c-1.81406,1.13828 -5.50851,3.44261 -7.35468,4.586c-1.83517,1.1366 -3.66293,2.26231 -5.4855,3.375c-1.81375,1.1073 -3.6235,2.20303 -5.43149,3.285c-1.80139,1.07803 -5.40158,3.20004 -7.20435,4.23933c-1.79593,1.03537 -3.59064,2.05186 -5.3895,3.03299c-1.78485,0.9735 -3.56772,1.91257 -5.35352,2.79901c-1.76505,0.87613 -5.28293,2.47549 -7.03497,3.18233c-1.72424,0.69562 -3.44168,1.32434 -5.14352,1.896c-1.6694,0.56076 -3.32034,1.06348 -4.9455,1.51801c-1.58704,0.44386 -4.66443,1.20328 -6.14648,1.52933c-1.43805,0.31636 -2.83865,0.59587 -4.20001,0.84601c-1.31876,0.24231 -2.59924,0.45552 -3.84,0.64799c-1.19928,0.18604 -3.47974,0.5061 -4.55933,0.649c-1.03506,0.13701 -2.02246,0.26163 -2.95801,0.375c-0.87915,0.10654 -1.69852,0.20128 -2.45401,0.285c-0.68719,0.07616 -1.84192,0.19548 -2.30316,0.24033c-0.38812,0.03775 -0.71054,0.06659 -0.97348,0.09601c-0.21136,0.02365 -0.37891,0.04417 -0.50552,0.078c-0.09863,0.02635 -0.23157,0.1102 -0.27148,0.16866c-0.04047,0.05928 -0.065,0.13048 -0.07501,0.20401c-0.0101,0.07414 -0.00525,0.1506 0.01501,0.222c0.01993,0.0703 0.10059,0.19203 0.16116,0.23132c0.06891,0.04469 0.16956,0.07245 0.29849,0.09601c0.16534,0.03021 0.37726,0.05153 0.6405,0.078c0.32208,0.03239 1.17142,0.11479 1.71115,0.16832c0.61758,0.06125 1.31094,0.12799 2.07901,0.18301c0.83926,0.06012 1.74908,0.10805 2.72699,0.129c1.04352,0.02235 3.32166,-0.02164 4.55084,-0.0975c1.28964,-0.07959 2.63626,-0.20103 4.03952,-0.34351c1.46045,-0.14828 2.97479,-0.32262 4.54349,-0.50549c1.62198,-0.18909 5.02011,-0.59016 6.7955,-0.78616c1.82458,-0.20143 3.69937,-0.39757 5.625,-0.57901c1.97443,-0.18604 3.99936,-0.35797 6.07498,-0.50699c2.12439,-0.15251 6.52466,-0.3907 8.79919,-0.47134c2.31882,-0.08221 4.67822,-0.13484 7.07248,-0.17099c2.42407,-0.03659 4.87335,-0.0537 7.3425,-0.063c2.48416,-0.00937 7.47751,-0.0105 9.97601,-0.0085c2.4895,0.002 4.96106,0.00677 7.40549,0.03149c2.40857,0.02437 4.77234,0.06433 7.08151,0.1395c2.24689,0.07314 6.51596,0.31166 8.51932,0.49268c1.91537,0.17307 3.73721,0.38683 5.46451,0.6225c1.63635,0.22327 3.17566,0.46756 4.6185,0.71249c1.34775,0.22879 3.74545,0.66783 4.79617,0.85783c0.95459,0.17262 1.81766,0.32681 2.59201,0.47101c0.69095,0.12866 1.3024,0.24564 1.836,0.36299c0.46362,0.10197 1.1933,0.29573 1.45682,0.40884c0.20651,0.08865 0.37476,0.18465 0.3765,0.28949c0.00165,0.09882 -0.17319,0.18857 -0.4155,0.25351c-0.34244,0.09177 -1.39606,0.19774 -2.11133,0.23566c-0.84344,0.04472 -1.81561,0.06813 -2.91449,0.08551c-1.22479,0.01938 -2.57468,0.02695 -4.04852,0.03149c-1.59683,0.00493 -5.15549,0.0045 -7.11166,0.0045c-2.05316,0 -4.18033,0 -6.35849,0c-2.20618,0 -4.41733,0 -6.6105,0l-2.15216,0"/>
  <path fill="none" stroke="#000000" stroke-width="5" id="svg_4" d="m216,262c-1.02083,0.5625 -1.59203,0.92117 -2.11734,1.77333c-0.47487,0.77032 -0.67067,1.46056 -1.21599,2.56c-0.41682,0.84039 -0.66664,1.26349 -1.14584,2.125c-0.45749,0.82246 -1.0928,1.84703 -1.34933,2.61299c-0.23581,0.70407 -0.17149,1.56467 -0.17149,2.58136c0,0.69464 -0.02065,1.7222 0.00017,2.66849c0.01799,0.81808 0.44383,1.65753 1.323,1.6785c0.61969,0.01477 1.65347,-0.11011 2.1315,-0.17032c1.21329,-0.15283 1.95958,-0.26971 2.78934,-0.40002c0.89661,-0.14081 1.84195,-0.29779 2.8185,-0.47098c0.99281,-0.17609 1.98416,-0.3584 2.95351,-0.561c1.82091,-0.38058 2.6353,-0.59106 3.388,-0.79602c0.7019,-0.19113 1.35529,-0.38861 1.97099,-0.58047c0.58694,-0.18289 1.14911,-0.36874 1.701,-0.53552c1.08769,-0.32867 2.20264,-0.60489 2.76317,-0.72366c1.09581,-0.23221 1.62529,-0.32928 2.62083,-0.47501c1.25133,-0.18317 1.90581,-0.25375 2.86482,-0.28217c1.03873,-0.03079 1.87651,-0.00449 2.84184,-0.00449c0.69066,0 1.60535,-0.00452 2.47583,0.00015c0.99754,0.00534 1.69057,-0.08548 2.8575,0.1665c0.81441,0.17584 1.85861,0.38153 2.37849,1.05518c0.46416,0.60144 0.12151,1.78799 0.12151,2.56351c0,1.048 0.1098,1.76883 -0.05716,2.55301c-0.22769,1.06943 -0.858,1.77512 -1.57884,2.22565c-0.78172,0.48859 -1.65036,0.43616 -2.69733,0.60266c-0.6413,0.10199 -1.34775,0.26718 -2.12401,0.40802c-0.82906,0.15042 -2.164,0.30383 -3.09534,0.36816l-0.47266,0.02115l-0.94934,0.02533l-0.94133,0.00934"/>
  <path fill="none" stroke="#000000" stroke-width="5" id="svg_5" d="m223,283c-0.07201,0.86267 -0.16129,1.40076 -0.44284,2.64984c-0.12242,0.54309 -0.41786,1.75964 -0.57799,2.41266c-0.16386,0.6683 -0.33069,1.34042 -0.49651,2.00549c-0.46028,1.84622 -0.59732,2.39069 -0.84666,3.388c-0.11517,0.46066 -0.33174,1.32596 -0.636,2.54401c-0.19882,0.79596 -0.39561,1.5665 -0.564,2.29199c-0.27982,1.20563 -0.7679,2.2298 -0.39551,3.008c0.26773,0.55948 1.45613,0.71915 2.52884,0.89868c0.64783,0.10843 1.36476,0.19568 2.13899,0.28049c0.8231,0.09015 1.68878,0.17099 2.589,0.2355c1.86832,0.13388 2.8233,0.16949 3.78267,0.19733c0.95901,0.02783 1.91341,0.03833 2.8575,0.02551c0.92931,-0.01263 1.83943,-0.04041 2.7225,-0.1095c1.67596,-0.13113 2.45593,-0.26019 3.19867,-0.39868c0.71468,-0.13327 1.39923,-0.29404 2.058,-0.47098c0.64261,-0.17261 1.26654,-0.36359 1.87799,-0.561c1.20775,-0.38995 1.80504,-0.59808 2.40533,-0.79602c0.5997,-0.19772 1.1976,-0.39844 2.40001,-0.76532c0.59882,-0.18271 1.1956,-0.36771 2.39999,-0.66934c1.19057,-0.29819 1.782,-0.40948 2.35733,-0.53067l1.09866,-0.22531l0.51534,-0.10617"/>
  <text stroke="#000000" transform="matrix(1.1904761791229248,0,0,1.5416666269302368,-51.23809218406677,-139.20832312107086) " font-style="italic" font-weight="bold" xml:space="preserve" text-anchor="middle" font-family="Cursive" font-size="24" id="svg_6" y="283.837838" x="322.44" stroke-width="0" fill="#000000">Baolem</text>
 </g>
</svg>